<svg width="100" height="92" viewBox="0 0 100 92" fill="none" xmlns="http://www.w3.org/2000/svg">
<g clip-path="url(#clip0)">
<rect width="1440" height="4823" transform="translate(-518 -3002)" fill="white"/>
<path opacity="0.6" fill-rule="evenodd" clip-rule="evenodd" d="M96.5994 54.9607C106.273 29.9508 81.7144 35.7909 57.7861 26.5353C33.8578 17.2797 15.1902 -1.49151 5.51625 23.5184C-4.15771 48.5284 7.39774 76.3061 31.3261 85.5617C55.2544 94.8173 86.9254 79.9707 96.5994 54.9607Z" fill="url(#paint0_linear)"/>
<g clip-path="url(#clip1)">
<path d="M77.8348 30.155L75.0844 32.9054C80.9977 42.162 80.5723 54.3214 73.7227 63.1187L59.2969 48.6929L56.645 51.3448L74.5454 69.2429C74.911 69.6085 75.5051 69.6085 75.8708 69.2429L77.1961 67.9175C77.2833 67.8306 77.3525 67.7273 77.3997 67.6135C77.4469 67.4998 77.4712 67.3779 77.4712 67.2548C77.4712 67.1317 77.4469 67.0097 77.3997 66.896C77.3525 66.7823 77.2833 66.679 77.1961 66.5921L76.404 65.7999C84.7079 55.4827 85.1883 40.9526 77.8348 30.155ZM48.6915 43.389L51.3434 40.737L36.9176 26.3112C45.7149 19.4628 57.8743 19.0362 67.1309 24.9495L69.8813 22.1991C59.0836 14.8456 44.5536 15.3261 34.2375 23.63L33.4442 22.8366C33.0774 22.471 32.4844 22.471 32.1188 22.8366L30.7922 24.1644C30.705 24.2513 30.6358 24.3546 30.5886 24.4683C30.5414 24.582 30.5171 24.7039 30.5171 24.8271C30.5171 24.9502 30.5414 25.0721 30.5886 25.1858C30.6358 25.2995 30.705 25.4028 30.7922 25.4897L48.6915 43.389ZM88.6852 9.51709C88.5645 9.51709 88.4426 9.52881 88.3184 9.55342L73.2481 12.5675C71.8079 12.8558 71.27 14.6323 72.3083 15.6718L77.0098 20.3733L47.4352 49.948L41.1504 47.1401C40.726 46.9984 40.2705 46.9776 39.835 47.0803C39.3995 47.183 39.0012 47.405 38.6848 47.7214L31.2247 55.1839C29.959 56.4495 30.4676 58.6058 32.1668 59.173L38.6895 61.3468L40.8633 67.8683C41.2137 68.9206 42.1747 69.5159 43.1567 69.5159C43.759 69.5159 44.3708 69.2909 44.8524 68.8093L52.3137 61.3479C52.6302 61.0316 52.8523 60.6334 52.9552 60.1979C53.058 59.7624 53.0376 59.3069 52.8961 58.8823L50.0883 52.5987L79.6629 23.0241L84.3657 27.7257C84.736 28.096 85.2001 28.2659 85.6571 28.2659C86.4821 28.2659 87.2836 27.7128 87.4688 26.7858L90.4817 11.7167C90.7137 10.5554 89.8102 9.51709 88.6852 9.51709ZM43.7333 64.6245L42.245 60.1608L41.652 58.3819L39.8731 57.789L35.4094 56.3007L40.6747 51.0354L46.4274 53.6054L48.9973 59.3581L43.7333 64.6245ZM84.4911 22.5507L77.4844 15.5452L86.2419 13.7933L84.4911 22.5507Z" fill="#1A1423"/>
</g>
</g>
<defs>
<linearGradient id="paint0_linear" x1="-1.0403" y1="40.469" x2="128.958" y2="62.877" gradientUnits="userSpaceOnUse">
<stop stop-color="#5C63AB"/>
<stop offset="1" stop-color="#7B4B94" stop-opacity="0.4"/>
</linearGradient>
<clipPath id="clip0">
<rect width="1440" height="4823" fill="white" transform="translate(-518 -3002)"/>
</clipPath>
<clipPath id="clip1">
<rect width="60" height="60" fill="white" transform="translate(30.5182 9.51709)"/>
</clipPath>
</defs>
</svg>
