<svg width="92" height="100" viewBox="0 0 92 100" fill="none" xmlns="http://www.w3.org/2000/svg">
<g clip-path="url(#clip0)">
<rect width="1440" height="4823" transform="translate(-223 -3003)" fill="white"/>
<path opacity="0.8" fill-rule="evenodd" clip-rule="evenodd" d="M75.7901 92.7542C99.8165 80.4807 77.0365 67.5283 64.7483 43.4732C52.4602 19.4182 50.53 -8.18585 26.5036 4.08765C2.47724 16.3612 -7.03849 45.8113 5.24966 69.8663C17.5378 93.9214 51.7637 105.028 75.7901 92.7542Z" fill="url(#paint0_linear)"/>
<g clip-path="url(#clip1)">
<path d="M91.7113 30.606C91.4548 29.8315 90.9219 29.2061 90.2113 28.8387L71.7179 19.5259L70.9383 20.6279C69.389 22.8122 65.8265 24.222 61.8692 24.222C57.912 24.222 54.3495 22.8122 52.8002 20.6279L52.0206 19.5259L33.5272 28.8387C32.8068 29.2061 32.2739 29.8315 32.0272 30.606C31.7706 31.3804 31.8298 32.2044 32.1949 32.9292L37.2771 43.2547C37.6324 43.9894 38.2443 44.5355 39.0041 44.7837C39.764 45.0518 40.5831 44.9823 41.2936 44.6248L46.0896 42.242V65.8517C46.0896 68.3338 48.0732 70.3493 50.5107 70.3493H73.2475C75.685 70.3493 77.6686 68.3338 77.6686 65.8517V42.2519L82.4548 44.6348C83.1653 45.0021 83.9844 45.0617 84.7541 44.7936C85.514 44.5355 86.1258 43.9894 86.4811 43.2646L91.5633 32.9292C91.9087 32.2044 91.9679 31.3804 91.7113 30.606ZM83.8462 41.7555L74.5008 37.109V65.8716C74.5008 66.5765 73.9383 67.1523 73.2377 67.1523H50.5008C49.8002 67.1523 49.2377 66.5765 49.2377 65.8716V37.109L40.0995 41.835L34.9383 31.7179L51.1324 23.5568C53.5008 25.9694 57.4679 27.4289 61.8791 27.4289C66.2903 27.4289 70.2574 25.9694 72.6258 23.5568L88.662 31.6385L83.8462 41.7555Z" fill="#1A1423"/>
</g>
</g>
<defs>
<linearGradient id="paint0_linear" x1="10.2197" y1="12.4061" x2="97.3495" y2="120.235" gradientUnits="userSpaceOnUse">
<stop stop-color="#5C63AB"/>
<stop offset="1" stop-color="#00BFB2" stop-opacity="0.38"/>
</linearGradient>
<clipPath id="clip0">
<rect width="1440" height="4823" fill="white" transform="translate(-223 -3003)"/>
</clipPath>
<clipPath id="clip1">
<rect width="60" height="50.8333" fill="white" transform="translate(31.8691 19.5259)"/>
</clipPath>
</defs>
</svg>
