<svg width="100" height="92" viewBox="0 0 100 92" fill="none" xmlns="http://www.w3.org/2000/svg">
<g clip-path="url(#clip0)">
<rect width="1440" height="4823" transform="translate(-1132 -3010)" fill="white"/>
<path opacity="0.8" fill-rule="evenodd" clip-rule="evenodd" d="M91.169 11.4561C77.2047 -12.2948 65.5031 11.637 41.8782 25.5272C18.2532 39.4175 -9.62464 42.9684 4.33966 66.7193C18.304 90.4702 48.7761 98.4639 72.401 84.5736C96.026 70.6834 105.133 35.2071 91.169 11.4561Z" fill="url(#paint0_linear)"/>
<g clip-path="url(#clip1)">
<path d="M64.7395 15.2605C61.3574 11.8785 57.0637 10 52.3762 10C46.9035 10 40.8965 12.5605 35.1777 18.2793L25.1301 28.327C15.8348 37.6223 16.7125 53.0184 18.8559 58.491L10.5496 66.7961C10.3751 66.9701 10.2368 67.1769 10.1424 67.4045C10.0481 67.6322 9.99972 67.8762 10 68.1227C10 69.1234 10.8051 70 11.8773 70C12.3578 70 12.8383 69.8172 13.2039 69.4504L21.516 61.1383C23.5316 61.9305 26.882 62.5539 30.8008 62.5539C37.5016 62.5539 45.8043 60.7398 51.673 54.8711L61.7207 44.8234C72.3379 34.2051 72.0695 22.5906 64.7395 15.2605ZM27.7844 30.9812L37.832 20.9336C42.5289 16.2367 47.5586 13.7535 52.3762 13.7535C56.0055 13.7535 59.3629 15.1926 62.0852 17.9148C67.0445 22.8742 67.4465 29.6453 63.6238 36.277H46.3773L50.7414 31.9129C51.475 31.1793 51.475 29.9922 50.7414 29.2586C50.0078 28.525 48.8207 28.525 48.0871 29.2586L21.8582 55.4875C20.698 50.4098 20.2996 38.4648 27.7844 30.9812ZM30.8008 58.7992C28.0703 58.7992 25.9996 58.4723 24.5324 58.1207L31.4172 51.2359L49.9551 51.2793L49.0187 52.2156C43.2906 57.9437 35.1461 58.7992 30.8008 58.7992ZM53.6969 47.5387H35.1156L42.6238 40.0305H60.9449C60.3461 40.7477 53.6969 47.5387 53.6969 47.5387Z" fill="#1A1423"/>
</g>
</g>
<defs>
<linearGradient id="paint0_linear" x1="13.804" y1="82.8165" x2="117.933" y2="-11.795" gradientUnits="userSpaceOnUse">
<stop stop-color="#00BFB2"/>
<stop offset="1" stop-color="#FFFD98" stop-opacity="0.42"/>
</linearGradient>
<clipPath id="clip0">
<rect width="1440" height="4823" fill="white" transform="translate(-1132 -3010)"/>
</clipPath>
<clipPath id="clip1">
<rect width="60" height="60" fill="white" transform="translate(10 10)"/>
</clipPath>
</defs>
</svg>
