<svg width="100" height="92" viewBox="0 0 100 92" fill="none" xmlns="http://www.w3.org/2000/svg">
<g clip-path="url(#clip0)">
<rect width="1440" height="4823" transform="translate(-818 -3004)" fill="white"/>
<path opacity="0.6" fill-rule="evenodd" clip-rule="evenodd" d="M95.2385 21.9878C87.7549 -2.63648 71.7288 16.5849 47.0343 24.0898C22.3399 31.5947 -3.94244 28.7762 3.54114 53.4004C11.0247 78.0247 37.1101 91.9026 61.8046 84.3977C86.499 76.8928 102.722 46.612 95.2385 21.9878Z" fill="url(#paint0_linear)"/>
<g clip-path="url(#clip1)">
<path d="M50.6056 40.6673L48.8056 38.2607L44.3056 41.6449L46.1056 44.0515L50.6056 40.6673ZM56.4556 39.652C57.7024 39.652 58.8556 39.276 59.8118 38.6273C60.4493 38.1949 61.0024 37.6402 61.4337 37.001C62.0806 36.0421 62.4556 34.8858 62.4556 33.6355C62.4556 32.3852 62.0806 31.2289 61.4337 30.27C61.2181 29.9504 60.9743 29.6496 60.7024 29.377C60.4306 29.1043 60.1306 28.8599 59.8118 28.6437C58.8556 27.9951 57.7024 27.619 56.4556 27.619C55.2087 27.619 54.0556 27.9951 53.0993 28.6437C52.4618 29.0761 51.9087 29.6308 51.4774 30.27C50.8306 31.2289 50.4556 32.3852 50.4556 33.6355C50.4556 36.954 53.1462 39.652 56.4556 39.652ZM56.4556 30.6273C58.1056 30.6273 59.4556 31.981 59.4556 33.6355C59.4556 35.29 58.1056 36.6437 56.4556 36.6437C54.8056 36.6437 53.4556 35.29 53.4556 33.6355C53.4556 31.981 54.8056 30.6273 56.4556 30.6273ZM11.8118 45.189C10.8556 44.5404 9.70244 44.1644 8.45557 44.1644C7.20869 44.1644 6.05557 44.5404 5.09932 45.189C4.46182 45.6215 3.90869 46.1761 3.47744 46.8154C2.83057 47.7742 2.45557 48.9305 2.45557 50.1808C2.45557 53.4993 5.14619 56.1973 8.45557 56.1973C11.7649 56.1973 14.4556 53.4993 14.4556 50.1808C14.4556 48.9305 14.0806 47.7742 13.4337 46.8154C13.0024 46.1761 12.4493 45.6215 11.8118 45.189ZM8.45557 53.1891C6.80557 53.1891 5.45557 51.8354 5.45557 50.1808C5.45557 48.5263 6.80557 47.1726 8.45557 47.1726C10.1056 47.1726 11.4556 48.5263 11.4556 50.1808C11.4556 51.8354 10.1056 53.1891 8.45557 53.1891ZM16.7056 51.685H21.2056V48.6767H16.7056V51.685ZM60.7024 59.4594C60.4306 59.1868 60.1306 58.9423 59.8118 58.7261C58.8556 58.0775 57.7024 57.7014 56.4556 57.7014C55.2087 57.7014 54.0556 58.0775 53.0993 58.7261C52.7899 58.9329 52.5087 59.168 52.2462 59.4312L43.6399 54.2514C44.1649 53.0011 44.4556 51.6192 44.4556 50.1808C44.4556 44.3618 39.7587 39.652 33.9556 39.652C32.8962 39.652 31.9024 39.8588 30.9368 40.1408L27.2524 32.2348C28.5931 31.1349 29.4556 29.4898 29.4556 27.619C29.4556 26.3687 29.0806 25.2124 28.4337 24.2536C28.0024 23.6143 27.4493 23.0597 26.8118 22.6272C25.8556 21.9786 24.7024 21.6025 23.4556 21.6025C22.2087 21.6025 21.0556 21.9786 20.0993 22.6272C19.4618 23.0597 18.9087 23.6143 18.4774 24.2536C17.8306 25.2124 17.4556 26.3687 17.4556 27.619C17.4556 30.9375 20.1462 33.6355 23.4556 33.6355C23.8306 33.6355 24.1962 33.5885 24.5524 33.5227L28.2087 41.3817C25.3493 43.2619 23.4556 46.4957 23.4556 50.1808C23.4556 55.9999 28.1524 60.7097 33.9556 60.7097C37.2368 60.7097 40.1243 59.168 42.0556 56.8084L50.7181 62.0164C50.5587 62.5616 50.4649 63.1257 50.4649 63.7179C50.4649 67.0364 53.1556 69.7344 56.4649 69.7344C57.7118 69.7344 58.8649 69.3584 59.8212 68.7097C60.4587 68.2773 61.0118 67.7226 61.4431 67.0834C62.0806 66.1245 62.4556 64.9682 62.4556 63.7179C62.4556 62.4676 62.0806 61.3113 61.4337 60.3525C61.2181 60.0328 60.9649 59.732 60.7024 59.4594ZM23.4556 30.6273C21.8056 30.6273 20.4556 29.2736 20.4556 27.619C20.4556 25.9645 21.8056 24.6108 23.4556 24.6108C25.1056 24.6108 26.4556 25.9645 26.4556 27.619C26.4556 29.2736 25.1056 30.6273 23.4556 30.6273ZM33.9556 57.7014C29.8212 57.7014 26.4556 54.3266 26.4556 50.1808C26.4556 46.0351 29.8212 42.6602 33.9556 42.6602C38.0899 42.6602 41.4556 46.0351 41.4556 50.1808C41.4556 54.3266 38.0899 57.7014 33.9556 57.7014ZM56.4556 66.7262C54.8056 66.7262 53.4556 65.3725 53.4556 63.7179C53.4556 62.0634 54.8056 60.7097 56.4556 60.7097C58.1056 60.7097 59.4556 62.0634 59.4556 63.7179C59.4556 65.3725 58.1056 66.7262 56.4556 66.7262Z" fill="#1A1423"/>
</g>
</g>
<defs>
<linearGradient id="paint0_linear" x1="7.54569" y1="66.5771" x2="100.229" y2="38.4096" gradientUnits="userSpaceOnUse">
<stop stop-color="#EDAE49"/>
<stop offset="0.860966" stop-color="#DB2763"/>
</linearGradient>
<clipPath id="clip0">
<rect width="1440" height="4823" fill="white" transform="translate(-818 -3004)"/>
</clipPath>
<clipPath id="clip1">
<rect width="60" height="48.1319" fill="white" transform="translate(2.45557 21.6025)"/>
</clipPath>
</defs>
</svg>
